# xmcd
#
# Track frame offsets:
#	150
#	17223
#	32274
#	46700
#	59539
#	80084
#	96183
#	107325
#	124157
#	137231
#
# Disc length: 1951 seconds
#
# Revision: 1
# Processed by: cddbd v1.5.2PL0 Copyright (c) Steve Scherf et al.
# Submitted via: audiograbber 1.83.01
#
DISCID=7c079d0a
DTITLE=Toby Keith - A Toby Keith Classic Christmas Vol. 2
DYEAR=2007
DGENRE=Country
TTITLE0=Little Drummer Boy
TTITLE1=Go Tell It On The Mountain
TTITLE2=The First Noel
TTITLE3=O Come All Ye Faithful
TTITLE4=Silent Night
TTITLE5=Away In A Manger
TTITLE6=We Three Kings
TTITLE7=O Little Town Of Bethlehem
TTITLE8=God Rest Ye Merry Gentlemen
TTITLE9=Joy To The World
EXTD=
EXTT0=
EXTT1=
EXTT2=
EXTT3=
EXTT4=
EXTT5=
EXTT6=
EXTT7=
EXTT8=
EXTT9=
PLAYORDER=
